<?xml version="1.0" encoding="utf-8"?>
<!-- Generator: Adobe Illustrator 19.0.0, SVG Export Plug-In . SVG Version: 6.00 Build 0)  -->
<svg version="1.1" id="Layer_1" xmlns="http://www.w3.org/2000/svg" xmlns:xlink="http://www.w3.org/1999/xlink" x="0px" y="0px"
	 viewBox="0 0 369 471.8" style="enable-background:new 0 0 369 471.8;" xml:space="preserve" height="50%" width="50%">
<style type="text/css">
	.st0{fill:#FFFFFF;stroke:#000000;stroke-miterlimit:10;}
	.st1{font-family:'MyriadPro-Regular';}
	.st2{font-size:12px;}
	.st3{font-size:10px;}
	.st4{fill:none;stroke:#000000;stroke-miterlimit:10;}
	.st5{fill:none;}
</style>
<ellipse class="st0" cx="178.7" cy="62.6" rx="46.2" ry="16.4"/>
<ellipse class="st0" cx="180.7" cy="229.6" rx="46.2" ry="16.4"/>
<rect x="134.5" y="134.9" class="st0" width="92.4" height="35.1"/>
<rect x="0.5" y="134.9" class="st0" width="92.4" height="35.1"/>
<rect x="148.8" y="314.7" transform="matrix(0.703 0.7112 -0.7112 0.703 300.7289 -25.5168)" class="st0" width="64.3" height="65.3"/>
<text transform="matrix(1 0 0 1 159.2558 66.8131)" class="st1 st2">LOCKED</text>
<text transform="matrix(1 0 0 1 151.8262 233.3703)" class="st1 st2">UNLOCKED</text>
<text transform="matrix(1 0 0 1 152.1246 150.1945)"><tspan x="0" y="0" class="st1 st3">schedule lock</tspan><tspan x="14.2" y="12" class="st1 st3">@ date</tspan></text>
<text transform="matrix(1 0 0 1 8.0787 150.1945)"><tspan x="0" y="0" class="st1 st3">remove shceduled</tspan><tspan x="30.1" y="12" class="st1 st3">lock</tspan></text>
<text transform="matrix(1 0 0 1 161.5048 333.5533)"><tspan x="0" y="0" class="st1 st3">new date</tspan><tspan x="16.4" y="12" class="st1 st3">&gt;</tspan><tspan x="-12.6" y="24" class="st1 st3">scheduled date</tspan><tspan x="17.4" y="36" class="st1 st3">?</tspan></text>
<rect x="134.3" y="436.2" class="st0" width="92.4" height="35.1"/>
<text transform="matrix(1 0 0 1 141.8497 451.4998)"><tspan x="0" y="0" class="st1 st3">remove shceduled</tspan><tspan x="30.1" y="12" class="st1 st3">lock</tspan></text>
<g>
	<g>
		<line class="st4" x1="180.9" y1="78.9" x2="180.9" y2="127.9"/>
		<g>
			<polygon points="180.9,134.9 176.9,124.9 180.9,127.3 185,124.9 			"/>
		</g>
	</g>
</g>
<g>
	<g>
		<line class="st4" x1="180.9" y1="169.9" x2="180.9" y2="205.9"/>
		<g>
			<polygon points="180.9,213.2 176.9,203.3 180.9,205.6 185,203.3 			"/>
		</g>
	</g>
</g>
<g>
	<g>
		<line class="st4" x1="180.9" y1="245.9" x2="180.9" y2="294.9"/>
		<g>
			<polygon points="180.9,301.9 176.9,291.9 180.9,294.3 185,291.9 			"/>
		</g>
	</g>
</g>
<g>
	<g>
		<line class="st4" x1="180.9" y1="392.9" x2="180.9" y2="428.9"/>
		<g>
			<polygon points="180.9,436.2 176.9,426.3 180.9,428.6 185,426.3 			"/>
		</g>
	</g>
</g>
<g>
	<g>
		<path class="st4" d="M47.3,177c5.1,29.6,42.2,52.6,87.3,52.6"/>
		<g>
			<polygon points="46.7,170 43.6,180.3 47.4,177.6 51.7,179.5 			"/>
		</g>
	</g>
</g>
<g>
	<g>
		<path class="st4" d="M46.7,134.9c0-38,34.7-69,78.8-72"/>
		<g>
			<polygon points="132.5,62.6 122.8,67.1 125,62.9 122.4,59 			"/>
		</g>
	</g>
</g>
<path class="st4" d="M302.9,286.7c0,33.4-34.1,60.5-76.1,60.5"/>
<g>
	<g>
		<path class="st4" d="M302.9,288.6c0-31.5-30.3-57.4-69.1-60.2"/>
		<g>
			<polygon points="226.7,228.2 236.8,224.5 234.3,228.5 236.5,232.6 			"/>
		</g>
	</g>
</g>
<path class="st4" d="M368.5,300.9c0,84.7-63.3,153.3-141.6,153.3"/>
<g>
	<g>
		<path class="st4" d="M368.5,305.7c0-82.2-59.6-149.1-134.6-153.1"/>
		<g>
			<polygon points="226.9,152.5 237,148.7 234.5,152.7 236.7,156.8 			"/>
		</g>
	</g>
</g>
<text transform="matrix(1 0 0 1 189.8199 106.8969)" class="st1 st3">unlock until date</text>
<path class="st5" d="M154.1,48.7c0-23.5,11-42.4,24.6-42.4"/>
<g>
	<g>
		<path class="st4" d="M168.7,16.4c1.4-9.2,5.5-15.9,10.4-15.9c6,0,10.9,10.3,10.9,22.9s-4.9,22.9-10.9,22.9S168.2,36,168.2,23.4"/>
		<g>
			<polygon points="168.2,23.4 173.1,13.9 168.9,15.8 165,13.1 			"/>
		</g>
	</g>
</g>
<text transform="matrix(1 0 0 1 197.4026 23.4008)" class="st1 st3">lock</text>
<text transform="matrix(1 0 0 1 57.5019 223.5611)" class="st1 st3">lock</text>
<text transform="matrix(1 0 0 1 187.2606 402.7748)" class="st1 st3">Y</text>
<text transform="matrix(1 0 0 1 233.5382 358.8502)" class="st1 st3">N</text>
<text transform="matrix(1 0 0 1 189.8199 273.8969)" class="st1 st3">unlock until date</text>
</svg>
